<?xml version="1.0" encoding="iso-8859-1"?>
<!-- Generator: Adobe Illustrator 25.0.1, SVG Export Plug-In . SVG Version: 6.00 Build 0)  -->
<svg version="1.1" id="&#x56FE;&#x5C42;_1" xmlns="http://www.w3.org/2000/svg" xmlns:xlink="http://www.w3.org/1999/xlink" x="0px"
	 y="0px" viewBox="0 0 448.906 48.432" style="enable-background:new 0 0 448.906 48.432;" xml:space="preserve">
<g id="&#x56FE;&#x5C42;_2_xA0_&#x56FE;&#x50CF;_1_">
</g>
<g id="teamhonor_&#x62F7;&#x8D1D;_xA0_&#x56FE;&#x50CF;_1_">
	<g>
		<g>
			<path style="fill:#FFFFFF;" d="M4.459,43.687V15.063H0v-3.822h4.459V2.473h4.459v8.768h5.351v3.822H8.918v28.624"/>
		</g>
		<g>
			<path style="fill:#FFFFFF;" d="M33.443,32.6h4.236c-0.15,7.047-3.344,10.715-9.587,11.017
				c-6.988,0.148-10.406-5.319-10.256-16.412c0.146-10.939,3.567-16.56,10.256-16.862c6.243,0,9.437,5.171,9.587,15.513
				c0,0.752,0.073,1.349,0.223,1.799H22.518c0,0.45,0,1.124,0,2.023c-0.3,7.195,1.634,10.718,5.797,10.567
				C31.732,40.244,33.443,37.697,33.443,32.6z M33.22,23.831c-0.15-0.299-0.223-0.597-0.223-0.899c0-5.846-1.637-8.768-4.905-8.768
				c-3.421,0-5.278,3.074-5.574,9.218v0.45L33.22,23.831L33.22,23.831z"/>
		</g>
		<g>
			<path style="fill:#FFFFFF;" d="M64.433,39.794v3.372c-0.446,0-0.819,0-1.115,0c-3.867,0.45-5.724-0.973-5.574-4.272h-0.223
				c-1.637,2.849-3.94,4.419-6.911,4.721c-5.797,0.148-8.549-2.845-8.249-8.993c0-3.745,1.484-6.295,4.459-7.644
				c1.484-0.597,3.344-1.349,5.574-2.248c2.526-1.047,3.863-1.648,4.013-1.799c0.592-0.45,0.892-1.423,0.892-2.923
				c0-0.299,0-0.597,0-0.899c0.146-3.446-1.561-5.094-5.128-4.946c-3.567-0.148-5.055,1.725-4.459,5.621h-4.013
				c-0.3-6.295,2.822-9.443,9.364-9.443c5.797,0,8.618,2.849,8.472,8.544v18.436c-0.15,1.5,0.146,2.326,0.892,2.473
				C62.573,39.945,63.242,39.945,64.433,39.794z M56.853,33.724v-7.869c-0.892,0.601-2.23,1.275-4.013,2.023
				c-1.487,0.752-2.529,1.275-3.121,1.574c-1.784,0.899-2.675,2.698-2.675,5.396c-0.15,3.748,1.338,5.547,4.459,5.396
				C54.919,39.945,56.703,37.771,56.853,33.724z"/>
		</g>
		<g>
			<path style="fill:#FFFFFF;" d="M74.689,21.808v21.359h-4.682V11.241h4.459v4.047c1.93-3.148,4.459-4.795,7.58-4.946
				c3.417,0.151,5.943,1.799,7.58,4.946c2.23-3.295,5.051-4.946,8.472-4.946c2.229,0,4.159,0.752,5.797,2.248
				c1.338,1.349,2.007,3.822,2.007,7.42v23.157h-4.459V19.785c0-3.745-1.637-5.621-4.905-5.621
				c-1.637,0.151-3.048,0.752-4.236,1.799c-1.488,1.202-2.156,3.148-2.006,5.846v21.359h-4.459V19.785
				c0-3.745-1.637-5.621-4.905-5.621c-1.637,0.151-3.121,0.752-4.459,1.799C75.135,17.013,74.539,18.963,74.689,21.808z"/>
		</g>
		<g>
			<path style="fill:#FFFFFF;" d="M118.833,21.808v21.359h-4.459V0h4.459v14.614c2.23-2.845,4.828-4.272,7.803-4.272
				c5.201,0.151,7.877,2.849,8.026,8.094v24.731h-4.682V19.785c0-3.745-1.561-5.621-4.682-5.621
				c-1.637,0.151-3.121,0.752-4.459,1.799C119.353,17.164,118.684,19.11,118.833,21.808z"/>
		</g>
		<g>
			<path style="fill:#FFFFFF;" d="M164.316,26.08c0.146,11.993-3.644,17.835-11.37,17.537c-7.73,0.148-11.521-5.695-11.371-17.537
				c0-10.342,3.79-15.587,11.371-15.738C160.376,10.493,164.166,15.738,164.316,26.08z M159.634,27.429
				c0.146-9.141-2.083-13.563-6.689-13.265c-4.759-0.298-6.988,4.124-6.689,13.265c-0.15,8.846,2.08,13.117,6.689,12.815
				C157.404,40.546,159.634,36.274,159.634,27.429z"/>
		</g>
		<g>
			<path style="fill:#FFFFFF;" d="M175.686,11.241v3.372h0.223c2.23-2.845,4.828-4.272,7.803-4.272
				c5.201,0.151,7.877,2.849,8.026,8.094v24.731h-4.682V19.785c0-3.745-1.561-5.621-4.682-5.621
				c-1.637,0.151-3.121,0.752-4.459,1.799c-1.488,1.202-2.157,3.148-2.007,5.846v21.359h-4.459V11.241H175.686z"/>
		</g>
		<g>
			<path style="fill:#FFFFFF;" d="M221.391,26.08c0.146,11.993-3.644,17.835-11.37,17.537c-7.73,0.148-11.521-5.695-11.371-17.537
				c0-10.342,3.79-15.587,11.371-15.738C217.451,10.493,221.242,15.738,221.391,26.08z M216.709,27.429
				c0.146-9.141-2.083-13.563-6.689-13.265c-4.759-0.298-6.988,4.124-6.689,13.265c-0.15,8.846,2.08,13.117,6.689,12.815
				C214.48,40.546,216.709,36.274,216.709,27.429z"/>
		</g>
		<g>
			<path style="fill:#FFFFFF;" d="M233.208,11.241v5.171h0.222c1.634-4.194,4.682-6.07,9.142-5.621v4.496
				c-5.797-0.748-8.845,2.101-9.142,8.544v19.335h-4.459V11.241H233.208z"/>
		</g>
	</g>
</g>
<g id="&#x5929;&#x6000;&#x6570;&#x667A;">
	<g>
		<g>
			<path style="fill:#FFFFFF;" d="M265.811,19.077h15.048c0.318-2.078,0.522-4.423,0.612-7.037h-13.557V6.839h33.041v5.201h-13.901
				c-0.102,2.231-0.242,4.577-0.421,7.037h16.273v5.277h-14.628c2.817,6.437,7.807,10.708,14.972,12.811
				c-1.045,1.172-2.524,2.983-4.436,5.43c-6.731-2.83-11.626-7.789-14.685-14.876c-2.269,5.826-7.075,10.72-14.417,14.685
				c-0.994-1.275-2.435-2.906-4.321-4.895c8.158-3.697,12.919-8.081,14.283-13.155h-13.862v-5.277
				C265.812,19.077,265.811,19.077,265.811,19.077z"/>
		</g>
		<g>
			<path style="fill:#FFFFFF;" d="M311.846,23.13c0.688-3.773,1.186-7.087,1.491-9.943l3.174,0.306
				c-0.306,3.34-0.714,6.756-1.224,10.249C314.013,23.462,312.866,23.258,311.846,23.13z M316.703,4.812h5.124v8.643l2.716-1.415
				l3.786,5.927l-4.015,2.371l-2.486-5.297v27.477h-5.124L316.703,4.812L316.703,4.812z M342.593,17.853
				c2.83,3.671,5.57,7.483,8.222,11.434l-3.633,4.092c-2.461-3.926-5.163-8.094-8.108-12.505v21.607h-5.201V23.073
				c-2.359,4.003-4.984,7.642-7.878,10.918c-1.249-1.428-2.575-2.83-3.977-4.207c5.749-5.927,9.854-12.097,12.314-18.509h-9.713
				V6.304h25.24v4.971h-10.211c-0.854,2.116-1.766,4.156-2.734,6.119h2.16v2.983L342.593,17.853z"/>
		</g>
		<g>
			<path style="fill:#FFFFFF;" d="M360.215,12.193h2.982c-0.676-1.364-1.581-2.817-2.715-4.36l3.442-2.142
				c0.79,0.943,1.861,2.422,3.212,4.436l-3.442,2.065h4.283V4.696h4.857v7.496h4.015l-3.174-2.065
				c1.274-1.555,2.345-3.072,3.212-4.551l3.595,2.142c-0.854,1.453-1.913,2.945-3.174,4.475h2.218v3.901h-6.693v2.677l1.3-1.759
				c1.594,0.854,3.104,1.695,4.531,2.524c2.091-3.875,3.895-8.885,5.411-15.029l5.239,0.497c-0.51,1.976-1.052,3.863-1.625,5.66
				h9.58v4.665h-1.549c-0.548,6.756-1.982,12.308-4.302,16.655c1.631,1.899,3.633,3.537,6.004,4.914
				c-0.918,1.045-2.027,2.741-3.327,5.086c-2.231-1.492-4.162-3.302-5.794-5.43c-2.103,2.473-4.544,4.474-7.323,6.004
				c-1.033-1.466-2.173-2.843-3.423-4.13l-1.357,2.256c-1.53-0.88-3.2-1.772-5.01-2.677c-2.791,1.861-6.131,3.187-10.019,3.977
				c-0.459-1.402-1.135-2.97-2.027-4.704c2.664-0.28,5.009-0.816,7.036-1.606c-1.759-0.777-3.621-1.568-5.583-2.371
				c0.867-1.262,1.644-2.524,2.333-3.786h-3.136v-3.901h5.028c0.421-1.007,0.784-2.014,1.09-3.021l2.065,0.191v-3.671
				c-1.887,1.988-4.258,3.837-7.113,5.545c-0.535-1.708-1.134-3.238-1.797-4.589c2.537-0.982,4.825-2.307,6.865-3.977h-5.717v-3.901
				C360.213,12.193,360.215,12.193,360.215,12.193z M366.716,31.505l3.977,1.491c1.147-0.994,2.09-2.154,2.83-3.48h-5.679
				L366.716,31.505z M372.835,23.666h-1.931c-0.293,0.625-0.618,1.275-0.975,1.95h8.91v3.557c-0.994,2.078-2.237,3.92-3.728,5.526
				l3.805,1.51l-0.765,1.243c2.817-1.466,5.22-3.365,7.208-5.698c-1.249-2.562-2.205-5.43-2.868-8.604
				c-0.446,0.803-0.899,1.575-1.358,2.314c-0.586-1.02-1.268-2.072-2.046-3.155l-1.128,1.702c-1.581-1.071-3.289-2.154-5.125-3.25
				v2.905C372.834,23.666,372.835,23.666,372.835,23.666z M385.646,16.419c0.51,4.245,1.402,7.795,2.677,10.65
				c1.517-3.34,2.422-7.253,2.715-11.74h-4.972C385.939,15.699,385.798,16.062,385.646,16.419z"/>
		</g>
		<g>
			<path style="fill:#FFFFFF;" d="M410.725,42.404V25.348c-0.421,0.179-0.854,0.357-1.301,0.535
				c-0.943-1.351-1.899-2.536-2.868-3.556c3.901-1.53,6.303-3.187,7.208-4.971H406.9v-3.748h2.371
				c-0.765-1.211-1.517-2.269-2.256-3.174c1.376-1.326,2.766-3.302,4.168-5.928h4.933c-0.421,0.943-0.86,1.836-1.32,2.677h10.689
				v3.786h-5.335c-0.064,0.931-0.166,1.81-0.306,2.639h6.788v3.748h-5.947l5.45,3.633l-2.486,2.83h16.367v18.586h-5.124v-1.683
				h-19.045v1.683L410.725,42.404L410.725,42.404z M410.113,13.608h4.818c0.127-0.79,0.217-1.67,0.268-2.639h-2.773
				C411.687,11.951,410.916,12.831,410.113,13.608z M413.612,23.818h8.777c-1.619-1.517-3.117-2.862-4.494-4.034
				C416.939,21.288,415.511,22.633,413.612,23.818z M434.894,27.834h-19.045v2.677h19.045V27.834z M415.849,36.706h19.045V34.22
				h-19.045V36.706z M427.245,7.336h15.259v14.303h-15.259V7.336z M437.762,17.585V11.39h-5.774v6.195
				C431.988,17.585,437.762,17.585,437.762,17.585z"/>
		</g>
	</g>
</g>
<g id="_xAE_">
	<g>
		<path style="fill:#FFFFFF;" d="M252.922,0.681c0.947,0,1.823,0.237,2.629,0.71c0.807,0.474,1.441,1.118,1.906,1.933
			c0.464,0.815,0.696,1.687,0.696,2.616s-0.234,1.796-0.703,2.602c-0.47,0.806-1.111,1.443-1.927,1.912
			c-0.814,0.469-1.687,0.704-2.615,0.704s-1.799-0.237-2.609-0.71c-0.811-0.473-1.45-1.115-1.919-1.926s-0.703-1.68-0.703-2.609
			s0.236-1.798,0.71-2.609s1.118-1.45,1.933-1.919C251.135,0.915,252.002,0.681,252.922,0.681z M252.935,10.447
			c1.22,0,2.274-0.439,3.162-1.318c0.888-0.879,1.332-1.951,1.332-3.217c0-0.783-0.201-1.528-0.602-2.233s-0.947-1.264-1.639-1.673
			c-0.692-0.41-1.443-0.615-2.254-0.615c-1.238,0-2.304,0.439-3.196,1.318s-1.339,1.951-1.339,3.217c0,0.792,0.202,1.539,0.607,2.24
			s0.959,1.256,1.66,1.667C251.369,10.242,252.125,10.447,252.935,10.447z M250.736,2.866h2.514c0.755,0,1.302,0.13,1.639,0.39
			c0.337,0.259,0.506,0.696,0.506,1.311s-0.251,1.054-0.752,1.318c0.246,0.119,0.421,0.259,0.526,0.423
			c0.104,0.164,0.157,0.478,0.157,0.942v0.683c0,0.282,0.072,0.546,0.218,0.792l0.096,0.164h-1.065
			c-0.063-0.228-0.109-0.523-0.137-0.888l-0.055-0.738c-0.018-0.364-0.091-0.603-0.218-0.717c-0.128-0.114-0.446-0.171-0.956-0.171
			h-1.517v2.513h-0.956L250.736,2.866L250.736,2.866z M251.692,3.726v1.79h1.489c0.428,0,0.744-0.066,0.949-0.198
			s0.307-0.364,0.307-0.697c0-0.332-0.093-0.564-0.279-0.696c-0.188-0.132-0.494-0.198-0.922-0.198L251.692,3.726L251.692,3.726z"/>
	</g>
</g>
</svg>
