<svg id="图层_1" data-name="图层 1" xmlns="http://www.w3.org/2000/svg" viewBox="0 0 442.5 43.69"><g id="teamhonor_拷贝_图像" data-name="teamhonor 拷贝 图像"><path d="M4.46,43.69V15.06H0V11.24H4.46V2.47H8.92v8.77h5.35v3.82H8.92V43.69" transform="translate(0 0)"/><path d="M33.44,32.6h4.24c-.15,7-3.35,10.71-9.59,11q-10.48.21-10.25-16.42.21-16.39,10.25-16.86,9.38,0,9.59,15.52a5.8,5.8,0,0,0,.22,1.79H22.52v2c-.3,7.19,1.63,10.72,5.79,10.56Q33.44,40.24,33.44,32.6Zm-.22-8.77a2,2,0,0,1-.22-.9q0-8.76-4.91-8.77-5.13,0-5.57,9.22v.45Z" transform="translate(0 0)"/><path d="M64.43,39.79v3.38H63.32q-5.8.67-5.58-4.28h-.22a8.7,8.7,0,0,1-6.91,4.72q-8.7.22-8.25-9,0-5.61,4.46-7.64l5.57-2.25a34.81,34.81,0,0,0,4-1.8c.59-.45.89-1.42.89-2.92v-.9c.14-3.45-1.56-5.1-5.13-4.95q-5.36-.23-4.46,5.62h-4q-.45-9.44,9.36-9.44,8.7,0,8.47,8.54V37.32c-.15,1.5.15,2.33.9,2.47C62.57,39.94,63.24,39.94,64.43,39.79Zm-7.58-6.07V25.85a23.86,23.86,0,0,1-4,2l-3.12,1.57c-1.78.9-2.68,2.7-2.68,5.4-.15,3.75,1.34,5.54,4.46,5.39Q56.63,39.79,56.85,33.72Z" transform="translate(0 0)"/><path d="M74.69,21.81V43.17H70V11.24h4.46v4q2.9-4.72,7.58-4.95a8.5,8.5,0,0,1,7.58,4.95Q93,10.34,98.1,10.34a8.31,8.31,0,0,1,5.8,2.25q2,2,2,7.42V43.17h-4.46V19.78c0-3.74-1.63-5.62-4.9-5.62A7.29,7.29,0,0,0,92.3,16c-1.49,1.2-2.15,3.15-2,5.85V43.17H85.84V19.78c0-3.74-1.64-5.62-4.91-5.62A8.43,8.43,0,0,0,76.47,16C75.14,17,74.54,19,74.69,21.81Z" transform="translate(0 0)"/><path d="M118.83,21.81V43.17h-4.46V0h4.46V14.61q3.35-4.26,7.81-4.27,7.8.23,8,8.1V43.17H130V19.78c0-3.74-1.56-5.62-4.68-5.62a8.4,8.4,0,0,0-4.46,1.8Q118.6,17.76,118.83,21.81Z" transform="translate(0 0)"/><path d="M164.32,26.08q.21,18-11.37,17.54-11.59.21-11.38-17.54,0-15.51,11.38-15.74Q164.1,10.57,164.32,26.08Zm-4.69,1.35q.23-13.71-6.68-13.27-7.14-.44-6.69,13.27Q146,40.69,153,40.24,159.63,40.71,159.63,27.43Z" transform="translate(0 0)"/><path d="M175.69,11.24v3.37h.22q3.34-4.26,7.8-4.27,7.8.23,8,8.09V43.17h-4.68V19.78c0-3.74-1.57-5.62-4.69-5.62a8.43,8.43,0,0,0-4.46,1.8q-2.22,1.8-2,5.85V43.17h-4.46V11.24Z" transform="translate(0 0)"/><path d="M221.39,26.08q.23,18-11.37,17.54-11.6.21-11.37-17.54,0-15.51,11.37-15.74Q221.16,10.57,221.39,26.08Zm-4.68,1.35q.21-13.71-6.69-13.27-7.14-.44-6.69,13.27-.22,13.26,6.69,12.81Q216.71,40.71,216.71,27.43Z" transform="translate(0 0)"/><path d="M233.21,11.24v5.17h.22q2.44-6.28,9.14-5.62v4.5q-8.7-1.12-9.14,8.54V43.17H229V11.24Z" transform="translate(0 0)"/></g><g id="天怀数智"><path d="M265.81,19.08h15.05a60.42,60.42,0,0,0,.61-7H267.91V6.84h33V12H287.05q-.15,3.35-.42,7h16.28v5.27H288.28q4.23,9.66,15,12.81-1.56,1.77-4.44,5.43a27,27,0,0,1-14.68-14.87q-3.4,8.73-14.42,14.68-1.48-1.9-4.32-4.89Q277.63,32,279.67,24.35H265.81V19.08Z" transform="translate(0 0)"/><path d="M311.85,23.13c.68-3.77,1.18-7.09,1.49-9.94l3.17.3q-.45,5-1.22,10.25C314,23.46,312.87,23.26,311.85,23.13ZM316.7,4.81h5.13v8.64L324.54,12,328.33,18l-4,2.37L321.83,15V42.52H316.7V4.81Zm25.89,13q4.25,5.5,8.23,11.44l-3.64,4.09q-3.69-5.9-8.11-12.51V42.48h-5.2V23.07A70.63,70.63,0,0,1,326,34q-1.87-2.14-4-4.21a55.05,55.05,0,0,0,12.31-18.51h-9.71v-5h25.24v5H339.65q-1.29,3.18-2.74,6.12h2.16v3Z" transform="translate(0 0)"/><path d="M360.21,12.19h3a30.33,30.33,0,0,0-2.72-4.36l3.44-2.14q1.18,1.41,3.22,4.44l-3.45,2.06H368V4.7h4.85v7.49h4l-3.18-2.06a36.63,36.63,0,0,0,3.22-4.55l3.59,2.14a34.73,34.73,0,0,1-3.17,4.47h2.22v3.9h-6.7v2.68l1.3-1.76q2.4,1.29,4.53,2.53a64.59,64.59,0,0,0,5.41-15l5.24.49q-.76,3-1.62,5.66h9.58v4.67h-1.55q-.83,10.12-4.3,16.65a23.18,23.18,0,0,0,6,4.92A30.43,30.43,0,0,0,394.09,42a24.11,24.11,0,0,1-5.79-5.43,25.87,25.87,0,0,1-7.32,6,34,34,0,0,0-3.43-4.13l-1.35,2.25q-2.29-1.32-5-2.67a27.87,27.87,0,0,1-10,4,33,33,0,0,0-2-4.7,27.21,27.21,0,0,0,7-1.61q-2.64-1.16-5.59-2.37a43.06,43.06,0,0,0,2.34-3.78h-3.14v-3.9h5c.42-1,.78-2,1.09-3l2.06.2V19.11a33,33,0,0,1-7.11,5.55,31,31,0,0,0-1.8-4.59,25,25,0,0,0,6.87-4h-5.72v-3.9Zm6.51,19.31,4,1.5a13,13,0,0,0,2.83-3.48h-5.68Zm6.11-7.83H370.9c-.29.62-.61,1.27-1,1.95h8.91v3.55a22,22,0,0,1-3.73,5.53l3.81,1.51-.77,1.24a23.59,23.59,0,0,0,7.21-5.7,36.5,36.5,0,0,1-2.87-8.6c-.45.8-.9,1.57-1.36,2.31a37,37,0,0,0-2-3.15L378,24q-2.37-1.61-5.13-3.25v2.91Zm12.82-7.25a37.43,37.43,0,0,0,2.67,10.65A33.61,33.61,0,0,0,391,15.33h-5C385.94,15.7,385.8,16.06,385.65,16.42Z" transform="translate(0 0)"/><path d="M410.73,42.4v-17l-1.31.53a30.06,30.06,0,0,0-2.86-3.55q5.85-2.29,7.2-5H406.9V13.61h2.37A32.17,32.17,0,0,0,407,10.43a23.71,23.71,0,0,0,4.17-5.92h4.94q-.63,1.41-1.32,2.67h10.68V11h-5.33a25.85,25.85,0,0,1-.31,2.64h6.79v3.75h-5.95L426.14,21l-2.49,2.83H440V42.4h-5.13V40.72h-19V42.4Zm-.62-28.79h4.82A23.94,23.94,0,0,0,415.2,11h-2.77A22.33,22.33,0,0,1,410.11,13.61Zm3.5,10.21h8.78c-1.62-1.52-3.12-2.86-4.49-4A13.31,13.31,0,0,1,413.61,23.82Zm21.28,4h-19v2.68h19Zm-19,8.88h19V34.22h-19ZM427.24,7.34H442.5v14.3H427.24Zm10.52,10.24V11.39H432v6.19Z" transform="translate(0 0)"/></g><g id="_" data-name="®"><path d="M252.92.68a5.14,5.14,0,0,1,2.63.71,5.2,5.2,0,0,1,1.91,1.93,5.26,5.26,0,0,1,.69,2.62,5,5,0,0,1-.7,2.6,5.13,5.13,0,0,1-1.93,1.91,5.15,5.15,0,0,1-5.22,0,5.3,5.3,0,0,1-1.92-1.93,5.11,5.11,0,0,1-.7-2.61,5,5,0,0,1,.71-2.61,5.23,5.23,0,0,1,1.93-1.92A5.1,5.1,0,0,1,252.92.68Zm0,9.77a4.36,4.36,0,0,0,3.17-1.32,4.38,4.38,0,0,0,1.33-3.22,4.44,4.44,0,0,0-.6-2.23,4.51,4.51,0,0,0-8.43,2.25,4.54,4.54,0,0,0,2.27,3.9A4.39,4.39,0,0,0,252.93,10.45Zm-2.19-7.58h2.51a2.71,2.71,0,0,1,1.64.39,1.53,1.53,0,0,1,.51,1.31,1.37,1.37,0,0,1-.76,1.31,1.24,1.24,0,0,1,.53.43,2,2,0,0,1,.16.94v.68a1.56,1.56,0,0,0,.21.79l.1.17h-1.07a5.34,5.34,0,0,1-.13-.89l-.06-.74a1,1,0,0,0-.21-.71,1.61,1.61,0,0,0-1-.18h-1.52V8.89h-.95v-6Zm.95.86V5.52h1.49a1.79,1.79,0,0,0,.95-.2.76.76,0,0,0,.31-.7.83.83,0,0,0-.28-.7,1.68,1.68,0,0,0-.92-.19Z" transform="translate(0 0)"/></g></svg>