<?xml version="1.0" encoding="iso-8859-1"?>
<!-- Generator: Adobe Illustrator 25.0.1, SVG Export Plug-In . SVG Version: 6.00 Build 0)  -->
<svg version="1.1" id="&#x56FE;&#x5C42;_1" xmlns="http://www.w3.org/2000/svg" xmlns:xlink="http://www.w3.org/1999/xlink" x="0px"
	 y="0px" viewBox="0 0 420 48" style="enable-background:new 0 0 420 48;" xml:space="preserve">
<g>
	<g>
		<path style="fill:#FFFFFF;" d="M3.35,29.993V12.688H0.654v-2.311H3.35V5.076h2.696v5.301h3.235v2.311H6.046v17.305"/>
	</g>
	<g>
		<path style="fill:#FFFFFF;" d="M20.873,23.289h2.561c-0.091,4.26-2.022,6.478-5.796,6.66c-4.225,0.089-6.291-3.215-6.2-9.922
			c0.088-6.613,2.157-10.012,6.2-10.194c3.774,0,5.705,3.126,5.796,9.379c0,0.454,0.044,0.816,0.135,1.087h-9.3
			c0,0.272,0,0.68,0,1.223c-0.181,4.35,0.988,6.48,3.505,6.388C19.838,27.911,20.873,26.371,20.873,23.289z M20.738,17.989
			c-0.091-0.181-0.135-0.361-0.135-0.544c0-3.534-0.99-5.301-2.965-5.301c-2.068,0-3.191,1.858-3.37,5.573v0.272H20.738z"/>
	</g>
	<g>
		<path style="fill:#FFFFFF;" d="M39.608,27.639v2.039c-0.27,0-0.495,0-0.674,0c-2.338,0.272-3.46-0.588-3.37-2.582H35.43
			c-0.99,1.722-2.382,2.672-4.178,2.854c-3.505,0.089-5.168-1.72-4.987-5.437c0-2.264,0.897-3.806,2.696-4.621
			c0.897-0.361,2.022-0.816,3.37-1.359c1.527-0.633,2.336-0.996,2.426-1.087c0.358-0.272,0.539-0.86,0.539-1.767
			c0-0.181,0-0.361,0-0.544c0.088-2.083-0.944-3.08-3.1-2.99c-2.157-0.089-3.056,1.043-2.696,3.398h-2.426
			c-0.181-3.806,1.706-5.709,5.661-5.709c3.504,0,5.21,1.722,5.122,5.165v11.146c-0.091,0.907,0.088,1.406,0.539,1.495
			C38.483,27.73,38.888,27.73,39.608,27.639z M35.025,23.969v-4.757c-0.539,0.363-1.348,0.771-2.426,1.223
			c-0.899,0.454-1.529,0.771-1.887,0.951c-1.078,0.544-1.617,1.631-1.617,3.262c-0.091,2.266,0.809,3.353,2.696,3.262
			C33.856,27.73,34.935,26.416,35.025,23.969z"/>
	</g>
	<g>
		<path style="fill:#FFFFFF;" d="M45.808,16.765v12.913h-2.83V10.377h2.696v2.447c1.167-1.903,2.696-2.899,4.583-2.99
			c2.066,0.091,3.593,1.087,4.583,2.99c1.348-1.992,3.054-2.99,5.122-2.99c1.348,0,2.515,0.454,3.505,1.359
			c0.809,0.816,1.213,2.311,1.213,4.486v14h-2.696V15.542c0-2.264-0.99-3.398-2.965-3.398c-0.99,0.091-1.843,0.454-2.561,1.087
			c-0.899,0.726-1.304,1.903-1.213,3.534v12.913h-2.696V15.542c0-2.264-0.99-3.398-2.965-3.398c-0.99,0.091-1.887,0.454-2.696,1.087
			C46.078,13.866,45.718,15.045,45.808,16.765z"/>
	</g>
	<g>
		<path style="fill:#FFFFFF;" d="M72.496,16.765v12.913h-2.696V3.581h2.696v8.835c1.348-1.72,2.919-2.582,4.718-2.582
			c3.144,0.091,4.762,1.722,4.852,4.893v14.951h-2.831V15.542c0-2.264-0.944-3.398-2.83-3.398c-0.99,0.091-1.887,0.454-2.696,1.087
			C72.81,13.958,72.406,15.134,72.496,16.765z"/>
	</g>
	<g>
		<path style="fill:#FFFFFF;" d="M99.993,19.348c0.089,7.251-2.203,10.782-6.874,10.602c-4.673,0.089-6.965-3.443-6.874-10.602
			c0-6.253,2.291-9.423,6.874-9.515C97.611,9.925,99.903,13.095,99.993,19.348z M97.163,20.163c0.088-5.526-1.26-8.2-4.044-8.019
			c-2.877-0.18-4.225,2.493-4.044,8.019c-0.091,5.348,1.257,7.93,4.044,7.748C95.815,28.094,97.163,25.511,97.163,20.163z"/>
	</g>
	<g>
		<path style="fill:#FFFFFF;" d="M106.867,10.377v2.039h0.135c1.348-1.72,2.919-2.582,4.718-2.582
			c3.144,0.091,4.762,1.722,4.852,4.893v14.951h-2.831V15.542c0-2.264-0.944-3.398-2.83-3.398c-0.99,0.091-1.887,0.454-2.696,1.087
			c-0.899,0.726-1.304,1.903-1.213,3.534v12.913h-2.696V10.377H106.867z"/>
	</g>
	<g>
		<path style="fill:#FFFFFF;" d="M134.499,19.348c0.089,7.251-2.203,10.782-6.874,10.602c-4.673,0.089-6.965-3.443-6.874-10.602
			c0-6.253,2.291-9.423,6.874-9.515C132.117,9.925,134.408,13.095,134.499,19.348z M131.668,20.163
			c0.088-5.526-1.26-8.2-4.044-8.019c-2.877-0.18-4.225,2.493-4.044,8.019c-0.091,5.348,1.257,7.93,4.044,7.748
			C130.32,28.094,131.668,25.511,131.668,20.163z"/>
	</g>
	<g>
		<path style="fill:#FFFFFF;" d="M141.643,10.377v3.126h0.134c0.988-2.536,2.831-3.67,5.527-3.398v2.718
			c-3.505-0.452-5.347,1.27-5.527,5.165v11.689h-2.696V10.377H141.643z"/>
	</g>
</g>
<g>
	<path style="fill:#FFFFFF;" d="M157.432,7.729c0,1.999-1.278,3.277-3.241,3.277c-1.999,0-3.241-1.225-3.241-3.223
		c0-1.962,1.243-3.259,3.259-3.259C156.172,4.524,157.432,5.785,157.432,7.729z M156.568,7.747c0-1.53-0.846-2.395-2.376-2.395
		c-1.513,0-2.341,0.936-2.341,2.413c0,1.584,0.792,2.431,2.341,2.431C155.722,10.196,156.568,9.278,156.568,7.747z M154.947,8.197
		l0.774,1.333h-1.044l-0.612-1.225h-0.288V9.53h-0.9V5.983h1.386c0.702,0,1.405,0.162,1.405,1.188
		C155.668,7.711,155.434,8.053,154.947,8.197z M153.777,7.657h0.342c0.306,0,0.63-0.018,0.63-0.486c0-0.432-0.234-0.468-0.63-0.468
		h-0.342V7.657z"/>
</g>
<g>
	<g>
		<path style="fill:#FFFFFF;" d="M3.32,42.102c0.731,0.325,1.519,0.688,2.365,1.088l1.869-1.617H2.923v-0.612l0.401-1.026H1.351
			v-0.629h2.221l0.447-1.133H1.856v-0.629h2.411l0.434-1.1h0.753l-0.434,1.1h3.916v0.629H4.771l-0.447,1.133h5.14v0.629H4.077
			l-0.401,1.017h4.822v0.645l-2.2,1.882c0.369,0.176,0.75,0.36,1.141,0.55l-0.405,0.629c-1.384-0.728-2.738-1.395-4.061-2.002
			L3.32,42.102z"/>
	</g>
	<g>
		<path style="fill:#FFFFFF;" d="M13.099,38.694c0.397,0.276,0.885,0.651,1.464,1.125c-0.204,0.232-0.367,0.411-0.488,0.538
			c-0.579-0.529-1.042-0.926-1.389-1.191L13.099,38.694z M13.843,41.076c0.226,0.099,0.444,0.19,0.653,0.273
			c-0.303,0.97-0.62,2.029-0.951,3.176l-0.711-0.248C13.182,43.334,13.518,42.267,13.843,41.076z M13.413,36.552
			c0.535,0.403,1.012,0.805,1.431,1.208c-0.187,0.187-0.353,0.356-0.496,0.505c-0.298-0.314-0.75-0.733-1.356-1.257L13.413,36.552z
			 M14.728,43.458h2.779v-2.349h-2.15v-0.629h2.15v-2.002h-2.382v-0.629h2.638c-0.259-0.411-0.524-0.786-0.794-1.125l0.546-0.347
			c0.369,0.43,0.662,0.811,0.877,1.141l-0.516,0.331h2.774v0.629h-2.448v2.002h2.15v0.629h-2.15v2.349h2.68v0.629h-6.153V43.458z"/>
	</g>
	<g>
		<path style="fill:#FFFFFF;" d="M24.706,38.223h3.184V36.42h0.711v1.803h3.217v3.771h-0.678v-0.447h-2.539v3.077h-0.711v-3.077
			h-2.506v0.447h-0.678V38.223z M25.385,40.936h2.506v-2.101h-2.506V40.936z M31.141,38.835h-2.539v2.101h2.539V38.835z"/>
	</g>
	<g>
		<path style="fill:#FFFFFF;" d="M36.065,36.866h7.237v7.717h-0.637V44.17h-5.963v0.422h-0.637V36.866z M42.665,37.454h-5.963v6.129
			h5.963V37.454z M37.083,42.143h2.283v-1.638h-1.993v-0.562h1.993v-1.108h-2.15v-0.562h4.929v0.562h-2.167v1.108h2.002v0.562
			h-2.002v1.638h2.299v0.562h-5.194V42.143z M40.408,41.035l0.463-0.347c0.303,0.314,0.562,0.609,0.777,0.885l-0.488,0.372
			C40.895,41.586,40.645,41.283,40.408,41.035z"/>
	</g>
	<g>
		<path style="fill:#FFFFFF;" d="M47.11,38.736V38.14h2.688v0.612c-0.267,0.535-0.584,1.041-0.951,1.518v4.264h-0.645v-3.515
			c-0.303,0.32-0.631,0.623-0.984,0.91c-0.05-0.198-0.127-0.427-0.232-0.686c0.849-0.684,1.552-1.519,2.109-2.506H47.11z
			 M47.929,36.751l0.579-0.289c0.204,0.325,0.419,0.703,0.645,1.133l-0.612,0.314C48.326,37.462,48.122,37.076,47.929,36.751z
			 M48.946,40.729l0.43-0.356c0.336,0.375,0.642,0.731,0.918,1.067l-0.513,0.405C49.517,41.465,49.238,41.093,48.946,40.729z
			 M49.798,43.632h2.324v-4.053h-1.968v-0.645h1.968v-2.423h0.662v2.423h2.101v0.645h-2.101v4.053h2.349v0.645h-5.335V43.632z"/>
	</g>
	<g>
		<path style="fill:#FFFFFF;" d="M59.106,37.032h7.113v0.645h-6.41v5.773h6.542v0.629h-7.245V37.032z M60.446,38.587l0.463-0.438
			c0.689,0.568,1.41,1.191,2.163,1.869c0.576-0.623,1.129-1.301,1.658-2.035l0.604,0.405c-0.579,0.75-1.166,1.445-1.762,2.084
			c0.686,0.626,1.398,1.296,2.134,2.01l-0.571,0.579c-0.667-0.698-1.354-1.387-2.059-2.068c-0.797,0.808-1.607,1.519-2.432,2.134
			c-0.132-0.171-0.309-0.35-0.529-0.538c0.866-0.59,1.689-1.278,2.469-2.064C61.892,39.873,61.18,39.226,60.446,38.587z"/>
	</g>
	<g>
		<path style="fill:#FFFFFF;" d="M69.944,41.233h1.257c0.121-0.21,0.24-0.425,0.356-0.645l0.595,0.19
			c-0.088,0.154-0.176,0.306-0.265,0.455h2.026v0.538c-0.21,0.54-0.527,1.015-0.951,1.423c0.303,0.143,0.612,0.287,0.926,0.43
			l-0.364,0.571c-0.342-0.193-0.698-0.386-1.067-0.579c-0.623,0.447-1.409,0.8-2.357,1.059c-0.088-0.176-0.182-0.369-0.281-0.579
			c0.805-0.182,1.486-0.444,2.043-0.786c-0.474-0.243-0.97-0.491-1.489-0.744c0.176-0.254,0.347-0.516,0.513-0.786h-0.943V41.233z
			 M70.035,38.388h1.902v-1.853h0.612v1.853h1.588v0.546H72.55v0.505l0.248-0.281c0.513,0.375,0.943,0.706,1.29,0.992l-0.397,0.463
			c-0.303-0.287-0.684-0.609-1.141-0.968v0.943h-0.612V39.43c-0.502,0.524-1.086,0.984-1.753,1.381
			c-0.105-0.16-0.223-0.328-0.356-0.505c0.695-0.375,1.332-0.833,1.911-1.373h-1.704V38.388z M70.25,37.106l0.471-0.323
			c0.248,0.303,0.505,0.629,0.769,0.976l-0.513,0.364C70.736,37.765,70.493,37.426,70.25,37.106z M71.185,42.375
			c0.391,0.176,0.794,0.361,1.208,0.554c0.38-0.325,0.678-0.709,0.893-1.15h-1.72C71.439,41.983,71.312,42.182,71.185,42.375z
			 M73.765,36.742l0.513,0.339c-0.303,0.397-0.607,0.764-0.91,1.1c-0.127-0.11-0.276-0.226-0.447-0.347
			C73.209,37.498,73.49,37.134,73.765,36.742z M75.271,36.461l0.662,0.099c-0.116,0.535-0.251,1.034-0.405,1.497h2.531v0.562h-0.521
			c-0.138,1.621-0.491,2.909-1.059,3.862c0.447,0.607,1.015,1.103,1.704,1.489c-0.176,0.243-0.325,0.46-0.447,0.653
			c-0.673-0.436-1.232-0.954-1.679-1.555c-0.507,0.629-1.111,1.174-1.811,1.638c-0.121-0.16-0.278-0.334-0.471-0.521
			c0.772-0.507,1.398-1.083,1.877-1.729c-0.447-0.772-0.742-1.662-0.885-2.671c-0.116,0.204-0.237,0.394-0.364,0.571
			c-0.11-0.16-0.248-0.336-0.414-0.529C74.628,38.907,75.056,37.785,75.271,36.461z M76.875,38.62h-1.547
			c-0.028,0.072-0.058,0.141-0.091,0.207c0.099,1.169,0.375,2.17,0.827,3.002C76.506,41.024,76.776,39.954,76.875,38.62z"/>
	</g>
	<g>
		<path style="fill:#FFFFFF;" d="M81.345,41.324h3.879v-0.521l1.629-1.026H82.85v-0.604h5.012v0.67l-1.96,1.257v0.223h3.614v0.612
			h-3.614v1.522c0,0.7-0.35,1.05-1.05,1.05c-0.281,0-0.692-0.006-1.232-0.017c-0.022-0.21-0.055-0.455-0.099-0.736
			c0.436,0.061,0.822,0.091,1.158,0.091c0.364,0,0.546-0.196,0.546-0.587v-1.323h-3.879V41.324z M81.659,37.677h3.805
			c-0.204-0.289-0.449-0.607-0.736-0.951l0.554-0.372c0.347,0.38,0.634,0.733,0.86,1.059l-0.393,0.265h3.486v1.679h-0.67v-1.075
			h-6.244v1.075h-0.662V37.677z"/>
	</g>
	<g>
		<path style="fill:#FFFFFF;" d="M92.728,40.539c0.959-1.274,1.665-2.627,2.117-4.061l0.72,0.207
			c-0.262,0.684-0.546,1.327-0.852,1.931v5.918h-0.695V39.86c-0.306,0.496-0.631,0.962-0.976,1.398
			C92.949,41.021,92.844,40.781,92.728,40.539z M95.053,41.556c0.722-0.336,1.398-0.724,2.026-1.162v-3.792h0.711v3.259
			c0.844-0.681,1.594-1.467,2.25-2.357l0.604,0.438c-0.802,1.067-1.753,2-2.853,2.8v2.336c0,0.375,0.199,0.562,0.595,0.562h1.05
			c0.375,0,0.593-0.179,0.653-0.538c0.077-0.375,0.127-0.808,0.149-1.299c0.232,0.088,0.474,0.168,0.728,0.24
			c-0.044,0.463-0.102,0.888-0.174,1.274c-0.105,0.634-0.502,0.951-1.191,0.951h-1.398c-0.75,0-1.125-0.369-1.125-1.108v-1.935
			c-0.516,0.331-1.059,0.634-1.629,0.91C95.334,41.953,95.201,41.76,95.053,41.556z"/>
	</g>
	<g>
		<path style="fill:#FFFFFF;" d="M108.885,36.552l-0.165,0.207c0.926,1.213,2.156,2.126,3.689,2.738
			c-0.171,0.243-0.317,0.463-0.438,0.662c-1.456-0.717-2.677-1.679-3.664-2.887c-0.844,1.092-2.09,2.09-3.738,2.994
			c-0.11-0.187-0.248-0.394-0.414-0.62c1.704-0.855,2.991-1.886,3.862-3.093H108.885z M104.534,43.615h3.416v-1.439h-2.68v-0.604
			h2.68v-1.274h-2.374v-0.604h5.442v0.604h-2.382v1.274h2.688v0.604h-2.688v1.439h3.408v0.612h-7.51V43.615z"/>
	</g>
	<g>
		<path style="fill:#FFFFFF;" d="M115.571,42.896c0.361-0.11,0.717-0.223,1.067-0.339v-3.234h-0.976v-0.579h0.976v-2.299h0.612
			v2.299h0.918v0.579h-0.918v3.027c0.289-0.099,0.576-0.201,0.86-0.306c0,0.061,0.019,0.265,0.058,0.612
			c-0.772,0.281-1.585,0.584-2.44,0.91L115.571,42.896z M117.721,43.012c0.998-0.154,2.007-0.336,3.027-0.546
			c-0.006,0.088,0.006,0.276,0.033,0.562c-0.816,0.149-1.764,0.336-2.845,0.562L117.721,43.012z M119.756,44.17
			c0.626-0.516,1.179-1.117,1.658-1.803c-0.19-0.86-0.307-2.167-0.352-3.92h-2.903v-0.579h2.887
			c-0.008-0.447-0.014-0.926-0.017-1.439h0.637c-0.006,0.502-0.006,0.981,0,1.439h2.043v0.579h-2.03
			c0.028,1.252,0.102,2.303,0.223,3.155c0.394-0.681,0.726-1.432,0.997-2.254l0.587,0.248c-0.422,1.097-0.893,2.055-1.414,2.874
			c0.116,0.436,0.262,0.79,0.438,1.063c0.149,0.237,0.276,0.356,0.38,0.356c0.099,0,0.168-0.119,0.207-0.356
			c0.05-0.287,0.088-0.717,0.116-1.29c0.237,0.094,0.444,0.165,0.62,0.215c-0.077,0.651-0.143,1.111-0.199,1.381
			c-0.094,0.485-0.317,0.731-0.67,0.736c-0.27-0.006-0.521-0.141-0.753-0.405c-0.229-0.254-0.423-0.605-0.583-1.055
			c-0.422,0.571-0.873,1.06-1.352,1.468C120.123,44.451,119.949,44.313,119.756,44.17z M118.358,39.373h2.109v2.572h-0.571v-0.19
			h-0.968v0.289h-0.571V39.373z M119.897,39.902h-0.968v1.323h0.968V39.902z M122.345,36.544c0.408,0.287,0.736,0.54,0.984,0.761
			l-0.38,0.438c-0.248-0.237-0.568-0.51-0.959-0.819L122.345,36.544z"/>
	</g>
	<g>
		<path style="fill:#FFFFFF;" d="M127.625,36.908h2.332v6.708c0,0.551-0.256,0.827-0.769,0.827c-0.281,0-0.543-0.008-0.786-0.025
			c-0.022-0.165-0.055-0.361-0.099-0.587c0.281,0.044,0.524,0.066,0.728,0.066c0.226,0,0.339-0.113,0.339-0.339v-1.902h-1.158
			c0.017,1.268-0.212,2.236-0.686,2.903c-0.121-0.16-0.273-0.314-0.455-0.463c0.369-0.568,0.554-1.373,0.554-2.415V36.908z
			 M129.37,37.445h-1.158v1.588h1.158V37.445z M128.212,41.142h1.158v-1.596h-1.158V41.142z M130.644,36.941h4.086
			c-0.028,0.447-0.05,0.8-0.066,1.059c-0.044,0.855-0.48,1.274-1.307,1.257c-0.226-0.006-0.582-0.017-1.067-0.033
			c-0.033-0.215-0.069-0.433-0.108-0.653c0.408,0.05,0.775,0.08,1.1,0.091c0.474,0.017,0.731-0.21,0.769-0.678
			c0.017-0.143,0.03-0.301,0.041-0.471h-2.82v2.382h3.49v0.488c-0.221,0.968-0.624,1.81-1.212,2.527
			c0.477,0.452,1.068,0.804,1.774,1.055c-0.187,0.221-0.347,0.419-0.48,0.595c-0.678-0.317-1.253-0.711-1.724-1.183
			c-0.422,0.416-0.917,0.783-1.485,1.1c-0.105-0.182-0.218-0.364-0.339-0.546c0.551-0.281,1.027-0.618,1.427-1.009
			c-0.538-0.689-0.892-1.519-1.063-2.49h-0.389v4.111h-0.629V36.941z M134.109,40.431h-1.882c0.171,0.794,0.476,1.469,0.914,2.026
			C133.596,41.881,133.919,41.206,134.109,40.431z"/>
	</g>
	<g>
		<path style="fill:#FFFFFF;" d="M140.861,36.345l0.62,0.265c-0.124,0.204-0.254,0.403-0.389,0.595h4.474v0.554
			c-0.513,0.623-1.214,1.168-2.105,1.633c0.926,0.336,2.03,0.544,3.312,0.624c-0.176,0.248-0.331,0.48-0.463,0.695
			c-1.436-0.19-2.641-0.511-3.614-0.964c-1.094,0.466-2.418,0.834-3.97,1.104c-0.094-0.171-0.207-0.364-0.339-0.579
			c1.381-0.212,2.58-0.513,3.598-0.902c-0.629-0.383-1.132-0.837-1.509-1.361c-0.427,0.507-0.9,0.977-1.418,1.41
			c-0.165-0.176-0.317-0.325-0.455-0.447C139.618,38.171,140.37,37.294,140.861,36.345z M139.124,41.192h2.407
			c0.039-0.267,0.072-0.565,0.099-0.893h0.67c-0.036,0.328-0.073,0.626-0.112,0.893h3.337c-0.055,0.987-0.108,1.679-0.157,2.076
			c-0.088,0.777-0.551,1.169-1.389,1.174c-0.325,0.006-0.813-0.006-1.464-0.033c-0.033-0.204-0.074-0.433-0.124-0.686
			c0.634,0.055,1.158,0.085,1.571,0.091c0.469-0.011,0.728-0.248,0.777-0.711c0.05-0.414,0.085-0.855,0.108-1.323h-2.758
			c-0.292,1.326-1.319,2.288-3.081,2.887c-0.127-0.182-0.262-0.367-0.405-0.554c1.582-0.513,2.52-1.29,2.812-2.332h-2.291V41.192z
			 M144.682,37.751h-3.693c0.444,0.532,1.015,0.97,1.712,1.315C143.498,38.694,144.159,38.256,144.682,37.751z"/>
	</g>
</g>
<g>
	<g>
		<path style="fill:#FFFFFF;" d="M239.551,15.313v-1.389h14.531v1.389h-7.644c-0.927,2.065-2.17,3.791-3.728,5.182
			c3.159,0,5.812-0.127,7.96-0.379c-0.294-0.759-0.653-1.537-1.073-2.338h1.769c0.884,1.433,1.58,3.054,2.085,4.866h-1.958
			c0-0.086-0.022-0.19-0.063-0.316c-0.086-0.211-0.168-0.486-0.252-0.822c-3.328,0.337-6.444,0.506-9.351,0.506h-1.2v-1.516
			c1.516-1.643,2.612-3.37,3.285-5.182H239.551z M240.878,10.892V9.438h11.878v1.454H240.878z"/>
	</g>
	<g>
		<path style="fill:#FFFFFF;" d="M255.725,13.103v-1.075c1.095-0.884,1.832-2,2.211-3.348h1.769
			c-0.041,0.084-0.084,0.211-0.125,0.379c-0.086,0.252-0.148,0.421-0.189,0.505h2.78v1.2c-0.254,0.548-0.549,1.011-0.886,1.391
			h1.391v9.349c0.041,1.011-0.484,1.495-1.58,1.454H260.4v-1.2h0.316c0.379,0.041,0.548-0.127,0.506-0.506v-1.769h-0.948v2.591
			h-1.454v-2.591h-1.01c-0.086,1.602-0.822,2.843-2.211,3.728v-1.453c0.589-0.759,0.862-1.811,0.821-3.159v-5.876L255.725,13.103z
			 M260.464,10.765h-1.705c-0.379,0.548-0.844,1.011-1.391,1.391h2.211C259.916,11.692,260.211,11.228,260.464,10.765z
			 M257.873,13.419v1.832h0.948v-1.832H257.873z M257.873,16.452v1.896h0.948v-1.896H257.873z M261.223,13.419h-0.948v1.832h0.948
			V13.419z M260.275,16.452v1.896h0.948v-1.896H260.275z M262.991,18.536v-1.137c0.546-0.632,0.841-1.559,0.884-2.78h1.516
			c0,0.125-0.022,0.316-0.063,0.568c0,0.168,0,0.295,0,0.379h0.822v-1.202h1.769v1.202h2.085v1.264h-2.085v2.21h2.4v1.264h-2.4
			v2.907h-1.769v-2.907h-3.159v-1.264h3.159v-2.21h-1.264C264.549,17.547,263.917,18.115,262.991,18.536z M263.117,14.366v-1.137
			c1.011-0.673,1.538-1.557,1.58-2.653h-1.389V9.312h6.571v2.716c0.041,1.307-0.632,1.938-2.022,1.896h-1.137v-1.2h0.568
			c0.546,0,0.821-0.273,0.821-0.822v-1.326h-1.705C266.276,12.345,265.181,13.608,263.117,14.366z"/>
	</g>
	<g>
		<path style="fill:#FFFFFF;" d="M271.647,22.895c1.011-2.359,1.664-4.885,1.959-7.582h1.705c-0.252,2.78-0.8,5.307-1.642,7.582
			H271.647z M273.29,13.292c-0.211-1.178-0.632-2.485-1.264-3.917h1.705c0.591,1.095,1.075,2.4,1.454,3.917H273.29z M275.69,17.399
			v-1.391h3.601v-0.252v-3.728h-3.158v-1.327h3.158V8.68h2.022v2.021h3.917v5.307h1.264v1.391h-4.991
			c0.464,1.684,1.98,3.137,4.55,4.359v1.389c-2.78-0.97-4.675-2.253-5.687-3.853c-0.927,1.684-2.696,2.969-5.307,3.853v-1.327
			c2.316-1.264,3.664-2.737,4.044-4.421H275.69z M283.398,12.029h-2.085v3.664v0.316h2.085V12.029z"/>
	</g>
	<g>
		<path style="fill:#FFFFFF;" d="M288.262,11.397V10.07h5.939V8.68h2.337v1.389h5.939v1.327h-9.54v2.085v0.063h8.024v6.887
			c0.041,1.6-0.781,2.378-2.464,2.337h-2.402v-1.2h1.643c0.759,0,1.116-0.357,1.075-1.073v-5.623h-5.939
			c0,3.959-1.538,6.719-4.612,8.276v-1.389c1.01-0.927,1.684-1.959,2.021-3.096c0.337-1.095,0.506-2.738,0.506-4.929v-2.337H288.262
			z"/>
	</g>
	<g>
		<path style="fill:#FFFFFF;" d="M318.588,22.959c-2.696-0.548-4.359-1.727-4.991-3.539h-1.011v3.791h-2.148V19.42h-1.073
			c-0.548,1.769-2.211,2.948-4.991,3.539v-1.138c1.516-0.505,2.505-1.305,2.969-2.4h-3.032v-1.2h6.128v-0.948h2.148v0.948h6.13v1.2
			h-3.096c0.462,1.095,1.453,1.896,2.969,2.4V22.959z M304.5,13.608v-1.2h1.894v-0.127v-0.757h2.086v0.884h6.001v-0.884h2.086v0.757
			v0.127h2.021v1.2h-2.148c-0.338,0.97-1.095,1.727-2.275,2.275c1.138,0.125,2.527,0.232,4.17,0.316v1.137
			c-2.907-0.127-5.202-0.357-6.887-0.695c-1.643,0.338-3.917,0.568-6.823,0.695v-1.137c1.305-0.043,2.716-0.148,4.232-0.316
			c-1.262-0.548-2.021-1.305-2.273-2.275H304.5z M304.816,11.524V9.438h5.496V8.68h2.337v0.757h5.56v2.086h-1.958v-0.886h-9.414
			v0.886H304.816z M311.449,15.377c1.516-0.421,2.464-1.011,2.843-1.769h-5.623C309.048,14.366,309.974,14.956,311.449,15.377z"/>
	</g>
	<g>
		<path style="fill:#FFFFFF;" d="M239.614,28.784v-1.264h1.391v-2.211h1.896v2.211h1.137v1.264h-1.137v3.158l1.137-0.316v1.202
			c-0.127,0.041-0.316,0.125-0.568,0.252c-0.252,0.125-0.443,0.211-0.568,0.252v4.548c0,1.221-0.611,1.811-1.834,1.77h-1.262v-1.264
			h0.505c0.505,0.041,0.737-0.168,0.695-0.632v-3.918c-0.422,0.127-0.948,0.232-1.58,0.316v-1.58
			c0.546-0.083,1.073-0.146,1.58-0.189v-3.601H239.614z M244.101,33.774v-1.262h9.981v1.262h-3.917v1.391h3.412v1.264h-3.412v1.832
			h0.379h3.601v1.137h-3.728c-2.191,0.041-3.728-0.527-4.612-1.705c-0.464,0.841-1.327,1.557-2.589,2.148v-1.327
			c1.051-0.757,1.599-2.105,1.642-4.044h1.77c-0.043,0.548-0.106,1.054-0.19,1.516c0.421,0.927,1.011,1.538,1.769,1.832v-4.044
			H244.101z M244.985,31.501v-5.623h8.149v3.664c0.043,1.349-0.589,2.002-1.894,1.959H244.985z M246.817,27.078v1.075h4.485v-1.075
			H246.817z M246.817,30.3h3.728c0.546,0.041,0.799-0.252,0.757-0.884v-0.19h-4.485V30.3z"/>
	</g>
	<g>
		<path style="fill:#FFFFFF;" d="M257.179,39.777v-8.971c-0.254,0.168-0.654,0.359-1.2,0.568c-0.17,0.086-0.295,0.149-0.379,0.19
			v-1.202c1.348-1.051,2.189-2.737,2.527-5.053h1.958c-0.252,1.432-0.611,2.548-1.073,3.348v11.119H257.179z M260.148,28.657V27.33
			h1.707v-2.085h1.894v2.085h2.527v-2.085h1.832v2.085h1.77v1.327h-1.77v4.548h2.211v1.327h-10.676v-1.327h2.211v-4.548H260.148z
			 M259.959,39.84v-1.264c1.221-0.632,1.978-1.727,2.273-3.285h1.959C263.896,37.481,262.486,38.997,259.959,39.84z M263.749,28.657
			v4.548h2.527v-4.548H263.749z M270.067,39.84c-2.486-0.843-3.896-2.338-4.232-4.486h1.958c0.295,1.516,1.053,2.591,2.275,3.223
			V39.84z"/>
	</g>
	<g>
		<path style="fill:#FFFFFF;" d="M271.899,27.457v-1.264h6.13v-0.948h2.337v0.948h6.065v1.264H271.899z M272.658,39.777V29.478
			h3.032c-0.211-0.421-0.379-0.968-0.505-1.642h1.958c0.127,0.632,0.295,1.18,0.506,1.642h3.032c0.21-0.462,0.379-1.01,0.505-1.642
			h1.959c-0.084,0.673-0.252,1.221-0.505,1.642h2.969v8.024c0.041,1.432-0.632,2.127-2.021,2.086h-1.516v-1.327h0.757
			c0.589,0.041,0.862-0.189,0.821-0.695v-6.823h-9.033v9.035H272.658z M276.195,37.945v-4.044c-0.421,0.211-0.884,0.379-1.389,0.505
			v-1.137c1.011-0.462,1.705-1.178,2.085-2.148h1.832c-0.505,1.222-1.159,2.043-1.958,2.464h4.737
			c-0.884-0.505-1.537-1.327-1.958-2.464h1.832c0.379,0.97,1.073,1.686,2.085,2.148v1.137c-0.505-0.125-0.948-0.273-1.327-0.441
			v2.085c0.041,1.307-0.591,1.938-1.896,1.896H276.195z M277.775,36.744h1.896c0.589,0.043,0.864-0.232,0.822-0.821v-1.138h-2.718
			V36.744z"/>
	</g>
</g>
<g>
	<g>
		<g>
			<path style="fill:#FFFFFF;" d="M208.856,44.266c-0.21,0-0.42-0.056-0.607-0.168l-19.422-11.601
				c-0.358-0.214-0.577-0.6-0.577-1.017s0.219-0.803,0.577-1.017l19.422-11.6c0.374-0.223,0.841-0.223,1.215,0l19.422,11.6
				c0.357,0.214,0.577,0.6,0.577,1.017s-0.22,0.803-0.577,1.017l-19.422,11.601C209.277,44.211,209.066,44.266,208.856,44.266z
				 M191.744,31.481l17.112,10.221l17.113-10.221l-17.113-10.22L191.744,31.481z"/>
		</g>
		<g>
			<path style="fill:#FFFFFF;" d="M208.856,32.666c-0.21,0-0.42-0.056-0.607-0.168l-19.422-11.599
				c-0.358-0.214-0.577-0.6-0.577-1.017s0.219-0.803,0.577-1.017l19.422-11.6c0.374-0.223,0.841-0.223,1.215,0l19.422,11.6
				c0.357,0.214,0.577,0.6,0.577,1.017s-0.22,0.803-0.577,1.017l-19.422,11.599C209.277,32.61,209.066,32.666,208.856,32.666z
				 M191.744,19.882l17.112,10.22l17.113-10.22L208.856,9.661L191.744,19.882z"/>
		</g>
	</g>
</g>
<g>
	<g>
		<path style="fill:#FFFFFF;" d="M356.623,7.501h-5.128c-0.327,0-0.593,0.265-0.593,0.593v5.127c0,0.327,0.265,0.593,0.593,0.593
			c0.327,0,0.593-0.265,0.593-0.593V8.686h4.535c0.327,0,0.593-0.265,0.593-0.593C357.216,7.766,356.95,7.501,356.623,7.501z"/>
	</g>
	<g>
		<path style="fill:#FFFFFF;" d="M356.623,25.739c-2.5,0-4.535-2.034-4.535-4.534c0-0.327-0.266-0.593-0.593-0.593
			c-0.327,0-0.593,0.266-0.593,0.593c0,3.154,2.566,5.72,5.72,5.72c0.327,0,0.593-0.266,0.593-0.593
			C357.216,26.004,356.95,25.739,356.623,25.739z"/>
	</g>
	<g>
		<g>
			<path style="fill:#FFFFFF;" d="M412.885,8.686c2.5,0,4.534,2.034,4.534,4.534c0,0.327,0.265,0.593,0.593,0.593
				c0.327,0,0.593-0.265,0.593-0.593c0-3.154-2.566-5.72-5.72-5.72c-0.327,0-0.593,0.265-0.593,0.593
				C412.292,8.421,412.558,8.686,412.885,8.686z"/>
		</g>
		<g>
			<path style="fill:#FFFFFF;" d="M418.012,20.612c-0.327,0-0.593,0.266-0.593,0.593v4.534h-4.534c-0.327,0-0.593,0.265-0.593,0.593
				c0,0.327,0.266,0.593,0.593,0.593h5.127c0.327,0,0.593-0.266,0.593-0.593v-5.127C418.605,20.877,418.339,20.612,418.012,20.612z"
				/>
		</g>
	</g>
</g>
<g>
	<g>
		<path style="fill:#FFFFFF;" d="M371.62,19.168h-8.512c0.031,1.342,0.392,2.378,1.083,3.108c0.69,0.73,1.64,1.095,2.849,1.095
			c1.358,0,2.606-0.447,3.744-1.342v1.813c-1.06,0.77-2.461,1.154-4.203,1.154c-1.703,0-3.042-0.547-4.015-1.642
			c-0.973-1.095-1.46-2.635-1.46-4.621c0-1.876,0.531-3.404,1.595-4.586c1.063-1.181,2.384-1.772,3.962-1.772
			s2.798,0.511,3.661,1.53c0.863,1.021,1.295,2.437,1.295,4.25V19.168z M369.642,17.531c-0.008-1.114-0.277-1.982-0.806-2.602
			c-0.53-0.62-1.266-0.93-2.207-0.93c-0.911,0-1.684,0.326-2.319,0.977c-0.636,0.652-1.029,1.503-1.177,2.555H369.642z"/>
	</g>
	<g>
		<path style="fill:#FFFFFF;" d="M376.471,24.713h-1.931V6.865h1.931V24.713z"/>
	</g>
	<g>
		<path style="fill:#FFFFFF;" d="M381.368,9.596c-0.346,0-0.64-0.118-0.883-0.353c-0.243-0.235-0.365-0.534-0.365-0.895
			c0-0.361,0.121-0.661,0.365-0.901c0.243-0.239,0.537-0.359,0.883-0.359c0.353,0,0.653,0.12,0.901,0.359
			c0.247,0.24,0.371,0.54,0.371,0.901c0,0.346-0.124,0.64-0.371,0.883C382.022,9.475,381.721,9.596,381.368,9.596z M382.31,24.713
			h-1.931V12.657h1.931V24.713z"/>
	</g>
	<g>
		<path style="fill:#FFFFFF;" d="M396.226,24.713h-1.931v-6.875c0-2.558-0.934-3.838-2.802-3.838c-0.965,0-1.764,0.363-2.396,1.089
			c-0.632,0.726-0.948,1.642-0.948,2.749v6.875h-1.931V12.657h1.931v2.001h0.047c0.91-1.522,2.229-2.284,3.956-2.284
			c1.319,0,2.327,0.426,3.026,1.277c0.698,0.852,1.048,2.082,1.048,3.691V24.713z"/>
	</g>
	<g>
		<path style="fill:#FFFFFF;" d="M409.871,24.713h-2.708l-5.321-5.792h-0.047v5.792h-1.931V6.865h1.931v11.314h0.047l5.062-5.522
			h2.531l-5.592,5.816L409.871,24.713z"/>
	</g>
</g>
<g>
	<path style="fill:#FFFFFF;" d="M356.757,37.472h4.616v5.535h-8.717v-5.103l-0.825,0.379l-0.84-1.435
		c1.232-0.474,2.044-0.92,2.518-1.61h-2.125v-1.286h0.65l-0.759-0.568c0.69-0.812,1.205-1.786,1.476-2.53l1.448,0.257l-0.298,0.758
		h3.262v1.3h-1.705c0,0.257-0.014,0.474-0.014,0.622v0.162h1.922v1.286h-1.813c0.69,0.365,1.435,0.744,1.963,1.056L356.757,37.472z
		 M353.929,33.953v-0.095c0.014-0.176,0.014-0.433,0.014-0.689h-0.718c-0.162,0.271-0.338,0.527-0.514,0.784H353.929z
		 M353.469,37.472h3.086c-0.501-0.365-1.178-0.771-1.76-1.137C354.497,36.741,354.051,37.12,353.469,37.472z M359.681,38.785h-5.319
		v0.785h5.319V38.785z M359.681,41.654V40.87h-5.319v0.784H359.681z M362.51,31.801v5.048h-4.778v-5.048H362.51z M361.035,33.195
		h-1.8v2.206h1.8V33.195z"/>
	<path style="fill:#FFFFFF;" d="M375.618,35.496v-0.825l-0.894,0.839h0.353v6.158c0,1.137-0.339,1.435-1.517,1.543l-0.622,0.055
		l-0.434-1.503l0.704-0.067c0.312-0.041,0.365-0.122,0.365-0.623v-0.405h-2.206v2.558h-1.502v-7.715h4.737l-0.379-0.608
		c-0.84,0.04-2.328,0.121-3.275,0.189c-0.434,0.04-0.799,0.081-1.11,0.148l-0.379-1.57c0.257-0.054,0.325-0.203,0.474-0.298
		c0.325-0.297,1.272-1.529,1.705-2.463l1.503,0.718c-0.474,0.798-1.15,1.786-1.503,2.029c0.487-0.04,1.083-0.054,1.665-0.095
		c-0.23-0.311-0.433-0.541-0.596-0.744l1.137-0.894c0.515,0.542,1.272,1.517,1.773,2.261v-2.978l1.543,0.081v1.598
		c0.947-0.406,2.07-0.921,2.599-1.313l0.704,1.448c-0.718,0.434-2.22,1.083-3.303,1.516v0.434c0,0.433,0.095,0.46,0.487,0.501
		c0.338,0.026,0.69,0.026,1.056,0c0.541-0.041,0.663-0.095,0.758-0.515c0.055-0.23,0.067-0.379,0.108-0.69l1.476,0.528
		c-0.041,0.284-0.068,0.474-0.136,0.812c-0.217,1.042-0.609,1.326-1.705,1.367c-0.785,0.041-1.57,0.041-2.342,0
		C376.038,36.93,375.618,36.539,375.618,35.496z M371.368,36.849v0.582h2.192v-0.582H371.368z M373.574,39.327l-0.014-0.596h-2.192
		v0.596H373.574z M381.126,40.49c-0.014,0.258-0.095,0.745-0.149,1.083c-0.216,1.029-0.663,1.326-1.813,1.395
		c-0.744,0.04-1.488,0.04-2.233,0c-0.866-0.041-1.299-0.46-1.299-1.489v-4.236l1.529,0.081v1.395
		c0.975-0.434,2.07-1.002,2.693-1.435l0.771,1.299c-0.825,0.542-2.342,1.232-3.465,1.665v0.704c0,0.433,0.162,0.501,0.582,0.541
		c0.312,0.027,0.623,0.027,0.934,0c0.596-0.04,0.745-0.148,0.853-0.636c0.041-0.203,0.082-0.528,0.122-0.907L381.126,40.49z"/>
	<path style="fill:#FFFFFF;" d="M398.904,43.171c-1.773-0.284-3.141-0.528-4.264-1.056c-0.69,0.527-1.638,0.906-2.991,1.326
		l-0.758-1.395l0.568-0.162h-3.384V38.23c-0.162,0.257-0.325,0.515-0.527,0.785l-0.894-1.435c0.744-1.11,1.665-2.721,2.098-4.25
		h-1.299v-1.57h4.182v1.57h-1.326c-0.203,0.744-0.42,1.381-0.677,2.017h1.868v6.523c0.717-0.217,1.285-0.433,1.732-0.69
		c-0.366-0.324-0.69-0.703-1.002-1.177l0.947-0.759h-1.028v-5.671h2.504v-0.677h-2.64v-1.448h6.916v1.448h-2.802v0.677h2.478v5.671
		h-2.531c-0.067,0.677-0.217,1.259-0.46,1.732c0.92,0.339,2.084,0.542,3.708,0.664L398.904,43.171z M390.147,36.985h-0.731v3.303
		h0.731V36.985z M393.34,39.245c0.271,0.379,0.569,0.69,0.894,0.961c0.149-0.271,0.257-0.595,0.325-0.961H393.34z M393.598,35.022
		v0.718h1.056v-0.718H393.598z M393.598,37.824h1.056v-0.027V37.12h-1.056V37.824z M396.128,35.022v0.718h1.069v-0.718H396.128z
		 M397.198,37.824V37.12h-1.069v0.704H397.198z"/>
	<path style="fill:#FFFFFF;" d="M409.182,31.544c-0.243,0.88-0.527,1.72-0.853,2.531v9.027h-1.678v-5.833
		c-0.312,0.474-0.623,0.907-0.961,1.34l-0.948-1.597c0.88-1.327,2.193-3.885,2.734-5.874L409.182,31.544z M417.155,39.327h-3.208
		v3.803h-1.692v-3.803h-3.56v-1.638h3.56v-2.478h-1.394c-0.23,0.758-0.487,1.448-0.744,2.085l-1.692-0.623
		c0.649-1.448,1.245-3.329,1.598-4.899l1.624,0.406c-0.095,0.446-0.203,0.92-0.325,1.394h0.934v-2.463l1.692,0.067v2.396h2.599
		v1.638h-2.599v2.478h3.208V39.327z"/>
</g>
</svg>
